<svg xmlns="http://www.w3.org/2000/svg" version="1.1" xmlns:xlink="http://www.w3.org/1999/xlink" xmlns:svgjs="http://svgjs.dev/svgjs" width="2000" height="2276" viewBox="0 0 2000 2276"><g transform="matrix(1,0,0,1,1.056533503409014,0.9231590715223774)"><svg viewBox="0 0 217 247" data-background-color="#ffffff" preserveAspectRatio="xMidYMid meet" height="2276" width="2000" xmlns="http://www.w3.org/2000/svg" xmlns:xlink="http://www.w3.org/1999/xlink"><g id="tight-bounds" transform="matrix(1,0,0,1,-0.11463388511987205,-0.09997365579206985)"><svg viewBox="0 0 217.22926777023972 247.2" height="247.2" width="217.22926777023972"><g><svg viewBox="0 0 217.22926777023972 247.2" height="247.2" width="217.22926777023972"><g><svg viewBox="0 0 217.22926777023972 247.2" height="247.2" width="217.22926777023972"><g id="textblocktransform"><svg viewBox="0 0 217.22926777023972 247.2" height="247.2" width="217.22926777023972" id="textblock"><g><svg viewBox="0 0 217.22926777023972 247.2" height="247.2" width="217.22926777023972"><path d="M216.721 53.02C215.699 27.36 212.789 20.227 212.789 20.227 203.853-6.202 192.701-0.506 182.683 3.292 164.995 3.446 147.378 9.091 129.731 12.119 92.691 12.581 55.334 4.986 18.477 23.717 15.015 29.464-3.592 24.846 0.616 56.304 1.719 69.39 5.742 83.913 5.62 95.922 6.171 98.026 6.937 93.202 7.264 96.23 8.408 104.39 10.277 100.541 11.809 105.365 9.674 118.246 11.206 128.971 12.666 140.21 10.093 143.135 6.794 141.749 5.314 151.449 5.16 158.479 4.333 157.145 3.424 156.837 2.76 156.632 1.423 157.402 1.647 159.608 2.413 167.152-0.875 171.514 1.188 178.904-0.232 186.91 2.168 193.838 1.841 202.511 1.8 204.255 2.025 205.744 2.383 206.154 3.965 208.361 1.657 212.672 1.903 217.342 18.14 249.262 35.757 227.195 52.393 241.872 56.713 231.608 53.465 245.516 55.191 243.36 56.539 240.846 57.519 251.263 59.041 245.362 59.276 243.668 58.918 239.665 59.756 240.435 60.195 240.846 60.583 240.743 60.644 238.382 60.736 234.841 59.93 237.048 59.715 235.201 62.033 225.861 61.461 248.081 63.637 247.158 63.534 244.438 62.901 240.538 64.198 241.051 65.485 237.151 65.526 233.918 66.67 242.693 66.711 244.592 66.915 245.926 67.242 246.85 70.816 237.305 74.37 250.237 78.118 245.926 80.416 241.205 82.621 248.492 84.95 246.696 85.767 245.259 86.594 242.693 87.38 247.004 97.011 247.928 107.274 244.079 116.404 247.158 140.802 241.41 166.874 249.518 192.599 241.923 198.665 238.998 204.966 234.841 210.879 231.506 210.879 231.506 215.669 222.371 215.669 181.316S216.69 145.393 216.843 112.703C216.996 80.013 217.711 78.679 216.69 53.02Z" opacity="1" fill="#804dee" data-fill-palette-color="tertiary"></path><g transform="matrix(1,0,0,1,55.76832,26.230666666666668)"><svg width="105.69262777023971" viewBox="2.5 -36.05 20 36.849999999999994" height="194.73866666666666" data-palette-color="#decfff"><path d="M7.05-8.55L2.5-8.55 2.5-26.7 7.05-26.7 7.05-8.55ZM7.05-26.7L2.5-26.7Q2.5-29.45 3.75-31.58 5-33.7 7.25-34.88 9.5-36.05 12.4-36.05L12.4-36.05 12.4-32.1Q9.9-32.1 8.47-30.7 7.05-29.3 7.05-26.7L7.05-26.7ZM2.5-8.6L2.5-8.6 7.05-8.6Q7.05-6 8.47-4.58 9.9-3.15 12.4-3.15L12.4-3.15 12.4 0.8Q9.5 0.8 7.25-0.4 5-1.6 3.75-3.7 2.5-5.8 2.5-8.6ZM22.5-26.25L18.35-25.4Q18.05-28.55 16.48-30.33 14.9-32.1 12.35-32.1L12.35-32.1 12.35-36.05Q16.6-36.05 19.28-33.45 21.95-30.85 22.5-26.25L22.5-26.25ZM18.35-9.85L18.35-9.85 22.5-9.05Q21.95-4.4 19.28-1.8 16.6 0.8 12.35 0.8L12.35 0.8 12.35-3.15Q14.9-3.15 16.48-4.93 18.05-6.7 18.35-9.85Z" opacity="1" transform="matrix(1,0,0,1,0,0)" fill="#decfff" class="wordmark-text-0" data-fill-palette-color="quaternary" id="text-0"></path></svg></g></svg></g></svg></g></svg></g><g></g></svg></g><defs></defs></svg><rect width="217.22926777023972" height="247.2" fill="none" stroke="none" visibility="hidden"></rect></g></svg></g></svg>